<svg xmlns="http://www.w3.org/2000/svg" width="200" height="200" viewBox="0 0 200 200">
  <rect width="200" height="200" fill="#1c1c1e" rx="32"/>
  <!-- Bulb body (teardrop) -->
  <path d="M100 42 C78 42 62 58 62 78 C62 93 70 105 82 112 L82 122 L118 122 L118 112 C130 105 138 93 138 78 C138 58 122 42 100 42 Z" fill="white"/>
  <!-- Base segments -->
  <rect x="84" y="125" width="32" height="6" rx="3" fill="rgba(255,255,255,0.5)"/>
  <rect x="87" y="134" width="26" height="5" rx="2.5" fill="rgba(255,255,255,0.35)"/>
  <rect x="91" y="142" width="18" height="4" rx="2" fill="rgba(255,255,255,0.2)"/>
  <!-- Spark rays -->
  <line x1="100" y1="28" x2="100" y2="18" stroke="rgba(255,255,255,0.7)" stroke-width="2.5" stroke-linecap="round"/>
  <line x1="130" y1="48" x2="138" y2="40" stroke="rgba(255,255,255,0.5)" stroke-width="2" stroke-linecap="round"/>
  <line x1="70" y1="48" x2="62" y2="40" stroke="rgba(255,255,255,0.5)" stroke-width="2" stroke-linecap="round"/>
  <line x1="148" y1="78" x2="158" y2="78" stroke="rgba(255,255,255,0.4)" stroke-width="2" stroke-linecap="round"/>
  <line x1="52" y1="78" x2="42" y2="78" stroke="rgba(255,255,255,0.4)" stroke-width="2" stroke-linecap="round"/>
  <!-- Spark dots -->
  <circle cx="140" cy="42" r="2" fill="rgba(255,255,255,0.35)"/>
  <circle cx="60" cy="42" r="2" fill="rgba(255,255,255,0.35)"/>
</svg>
