<svg xmlns="http://www.w3.org/2000/svg" width="800" height="420" font-family="-apple-system, BlinkMacSystemFont, sans-serif" viewBox="0 0 800 420"><rect width="800" height="420" fill="#f5f5f7" rx="16"/><text x="400" y="40" fill="#1d1d1f" font-size="18" font-weight="700" text-anchor="middle">Spark iOS — Architecture</text><rect width="200" height="260" x="40" y="70" fill="#fff" stroke="#d2d2d7" stroke-width="1.5" rx="12"/><text x="140" y="100" fill="#1d1d1f" font-size="13" font-weight="600" text-anchor="middle">SwiftUI Views</text><rect width="160" height="34" x="60" y="114" fill="#f0f7ff" stroke="#0071e3" rx="8"/><text x="140" y="136" fill="#0071e3" font-size="12" text-anchor="middle">FeedView</text><rect width="160" height="34" x="60" y="156" fill="#f0f7ff" stroke="#0071e3" rx="8"/><text x="140" y="178" fill="#0071e3" font-size="12" text-anchor="middle">CreateView</text><rect width="160" height="34" x="60" y="198" fill="#f0f7ff" stroke="#0071e3" rx="8"/><text x="140" y="220" fill="#0071e3" font-size="12" text-anchor="middle">ProfileView</text><rect width="160" height="34" x="60" y="240" fill="#f0f7ff" stroke="#0071e3" rx="8"/><text x="140" y="262" fill="#0071e3" font-size="12" text-anchor="middle">AuthSheet</text><rect width="160" height="34" x="60" y="282" fill="#f5f5f7" stroke="#d2d2d7" rx="8"/><text x="140" y="304" fill="#6e6e73" font-size="12" text-anchor="middle">ContentView / TabView</text><rect width="200" height="160" x="300" y="120" fill="#fff" stroke="#d2d2d7" stroke-width="1.5" rx="12"/><text x="400" y="150" fill="#1d1d1f" font-size="13" font-weight="600" text-anchor="middle">AppState</text><text x="400" y="172" fill="#6e6e73" font-size="11" text-anchor="middle">@Observable</text><rect width="164" height="26" x="318" y="184" fill="#f0f7ff" stroke="#0071e3" rx="6"/><text x="400" y="201" fill="#0071e3" font-size="11" text-anchor="middle">user: AuthResponse?</text><rect width="164" height="26" x="318" y="216" fill="#f0f7ff" stroke="#0071e3" rx="6"/><text x="400" y="233" fill="#0071e3" font-size="11" text-anchor="middle">posts: [Post]</text><rect width="164" height="26" x="318" y="248" fill="#f5f5f7" stroke="#d2d2d7" rx="6"/><text x="400" y="265" fill="#6e6e73" font-size="11" text-anchor="middle">login / logout / vote</text><rect width="200" height="180" x="560" y="70" fill="#fff" stroke="#d2d2d7" stroke-width="1.5" rx="12"/><text x="660" y="100" fill="#1d1d1f" font-size="13" font-weight="600" text-anchor="middle">SparkAPI</text><text x="660" y="118" fill="#6e6e73" font-size="11" text-anchor="middle">URLSession singleton</text><rect width="164" height="22" x="578" y="130" fill="#f0f7ff" stroke="#0071e3" rx="6"/><text x="660" y="145" fill="#0071e3" font-size="11" text-anchor="middle">POST /api/auth/login</text><rect width="164" height="22" x="578" y="158" fill="#f0f7ff" stroke="#0071e3" rx="6"/><text x="660" y="173" fill="#0071e3" font-size="11" text-anchor="middle">GET /api/posts</text><rect width="164" height="22" x="578" y="186" fill="#f0f7ff" stroke="#0071e3" rx="6"/><text x="660" y="201" fill="#0071e3" font-size="11" text-anchor="middle">POST /api/posts</text><rect width="164" height="22" x="578" y="214" fill="#f0f7ff" stroke="#0071e3" rx="6"/><text x="660" y="229" fill="#0071e3" font-size="11" text-anchor="middle">POST /api/posts/:id/vote</text><rect width="200" height="70" x="560" y="280" fill="#fff" stroke="#d2d2d7" stroke-width="1.5" rx="12"/><text x="660" y="306" fill="#1d1d1f" font-size="13" font-weight="600" text-anchor="middle">KeychainHelper</text><text x="660" y="326" fill="#6e6e73" font-size="11" text-anchor="middle">JWT token + user cache</text><text x="660" y="342" fill="#6e6e73" font-size="11" text-anchor="middle">Security.framework</text><rect width="240" height="38" x="280" y="370" fill="#1d1d1f" rx="10"/><text x="400" y="394" fill="#fff" font-size="13" font-weight="600" text-anchor="middle">spark.heyitsmejosh.com</text><path stroke="#0071e3" stroke-width="1.5" marker-end="url(#a)" d="M240 200h58"/><text x="269" y="194" fill="#0071e3" font-size="10" text-anchor="middle">@Env</text><path stroke="#0071e3" stroke-width="1.5" marker-end="url(#a)" d="m500 180 58-20"/><text x="529" y="163" fill="#0071e3" font-size="10" text-anchor="middle">async/await</text><path stroke="#6e6e73" stroke-dasharray="4 3" stroke-width="1.5" d="M660 252v88"/><path stroke="#6e6e73" stroke-dasharray="4 3" stroke-width="1.5" marker-end="url(#a)" d="m660 340-160 30"/><path stroke="#0071e3" stroke-width="1.5" marker-end="url(#a)" d="M660 252v26"/><defs><marker id="a" markerHeight="8" markerWidth="8" orient="auto" refX="6" refY="3"><path fill="#0071e3" d="M0 0v6l8-3z"/></marker></defs></svg>